<svg xmlns="http://www.w3.org/2000/svg" viewBox="0 0 240 240" width="240" height="240"><defs><clipPath id="lc"><circle cx="104" cy="120" r="44"/></clipPath><clipPath id="gR"><rect x="120" y="0" width="120" height="120"/></clipPath></defs>
<rect width="240" height="240" rx="48" fill="#0B2D50"/>
<g transform="scale(0.86) translate(20,20)">
<path fill="#0A0A0A" d="M99.13 42.77 L98.38 20.32 L141.62 20.32 L140.87 42.77 L148.51 45.25 L161.10 26.65 L196.09 52.07 L182.28 69.78 L187.00 76.29 L208.12 68.63 L221.49 109.76 L199.90 115.98 L199.90 124.02 L221.49 130.24 L208.12 171.37 L187.00 163.71 L182.28 170.22 L196.09 187.93 L161.10 213.35 L148.51 194.75 L140.87 197.23 L141.62 219.68 L98.38 219.68 L99.13 197.23 L91.49 194.75 L78.90 213.35 L43.91 187.93 L57.72 170.22 L53.00 163.71 L31.88 171.37 L18.51 130.24 L40.10 124.02 L40.10 115.98 L18.51 109.76 L31.88 68.63 L53.00 76.29 L57.72 69.78 L43.91 52.07 L78.90 26.65 L91.49 45.25 Z"/>
<g clip-path="url(#gR)"><path fill="#2E6DB4" d="M99.13 42.77 L98.38 20.32 L141.62 20.32 L140.87 42.77 L148.51 45.25 L161.10 26.65 L196.09 52.07 L182.28 69.78 L187.00 76.29 L208.12 68.63 L221.49 109.76 L199.90 115.98 L199.90 124.02 L221.49 130.24 L208.12 171.37 L187.00 163.71 L182.28 170.22 L196.09 187.93 L161.10 213.35 L148.51 194.75 L140.87 197.23 L141.62 219.68 L98.38 219.68 L99.13 197.23 L91.49 194.75 L78.90 213.35 L43.91 187.93 L57.72 170.22 L53.00 163.71 L31.88 171.37 L18.51 130.24 L40.10 124.02 L40.10 115.98 L18.51 109.76 L31.88 68.63 L53.00 76.29 L57.72 69.78 L43.91 52.07 L78.90 26.65 L91.49 45.25 Z"/></g>
<circle fill="#FFFFFF" cx="120" cy="120" r="60"/>
<circle cx="104" cy="120" r="50" fill="#0B2D50"/>
<circle cx="104" cy="120" r="44" fill="#FFFFFF"/>
<g><path fill="#2E6DB4" d="M88,108 l16,-8 l16,8 l-16,8 Z"/><path fill="#1E4D7B" d="M88,108 l16,8 l0,18 l-16,-8 Z"/><path fill="#0B2D50" d="M104,116 l16,-8 l0,18 l-16,8 Z"/></g>
<rect x="139" y="151" width="14" height="44" rx="7" transform="rotate(-45 146 173)" fill="#0B2D50"/>
<circle cx="152" cy="96" r="24" fill="#FFFFFF"/><circle cx="152" cy="96" r="20" fill="#2E6DB4"/>
<path d="M143 96 l6 7 l13 -15" fill="none" stroke="#FFFFFF" stroke-width="6" stroke-linecap="round" stroke-linejoin="round"/>
</g></svg>